<?xml version="1.0" encoding="UTF-8"?>
<svg id="Layer_2" data-name="Layer 2" xmlns="http://www.w3.org/2000/svg" viewBox="0 0 1857.6 362.89">
  <defs>
    <style>
      .cls-1 {
        letter-spacing: -.02em;
      }

      .cls-2 {
        fill-rule: evenodd;
        stroke-width: 0px;
      }

      .cls-2, .cls-3 {
        fill: #000;
      }

      .cls-4 {
        letter-spacing: 0em;
      }

      .cls-5 {
        letter-spacing: 0em;
      }

      .cls-6 {
        letter-spacing: .02em;
      }

      .cls-7 {
        letter-spacing: -.02em;
      }

      .cls-8 {
        letter-spacing: 0em;
      }

      .cls-3 {
        font-family: AirntQuantum, Airnt;
        font-size: 250.15px;
      }

      .cls-9 {
        letter-spacing: -.02em;
      }
    </style>
  </defs>
  <g id="New_Layer" data-name="New Layer">
    <g>
      <path class="cls-2" d="M148.04.73c-35.76,4.53-70,20.82-96.03,45.74C30.46,67.1,15.14,91.83,6.53,120.07c-4.48,14.75-7.69,35.91-6.13,40.63.78,2.36,3.65,5.49,6.08,6.55,1.85.87,5.5.92,78.52.92h76.62l2.09-1.01c2.68-1.3,4.86-3.9,5.74-6.89,1.07-3.61,1.07-148.78,0-152.4-.92-3.04-3.06-5.59-5.84-6.89-2.63-1.2-7.25-1.3-15.57-.24Z"/>
      <path class="cls-2" d="M203.5,1.84c-2.48,1.11-5.4,4.29-6.08,6.65-.39,1.3-.49,23.38-.39,77.55l.15,75.72,1.46,2.31c1.02,1.59,2.29,2.75,4.14,3.81l2.68,1.49h152.75l2.29-1.11c2.58-1.25,4.57-3.33,5.64-5.88,1.61-3.86-.1-19.09-3.84-33.98C345.11,60.64,287.71,10.23,217.8,1.65c-7.98-.96-11.87-.92-14.3.19Z"/>
      <path class="cls-2" d="M340.93,192.56c-72.78,9.78-130.91,63.67-145.16,134.66-1.51,7.42-2.72,17.01-2.72,21.21.05,5.01,2.29,8.72,6.57,10.65,1.85.87,5.3.92,78.57.92h76.67l2.63-1.59c1.9-1.16,2.97-2.22,4.09-4.19l1.51-2.65v-151.34l-1.51-2.65c-1.12-1.98-2.19-3.04-4.09-4.24-2.48-1.45-2.87-1.54-7.05-1.49-2.38.05-6.66.34-9.49.72Z"/>
      <path class="cls-2" d="M6.48,195.59c-2.43,1.06-5.3,4.19-6.08,6.55-1.56,4.72,1.65,25.88,6.13,40.63,5.35,17.45,13.82,34.7,24.18,49.16,8.12,11.37,21.45,25.5,31.72,33.69,18.29,14.51,37.51,24.53,59.5,30.99,11.38,3.33,28.26,6.27,36.15,6.27,5.79,0,9.88-2.84,11.43-8,1.02-3.47,1.02-148.78-.05-152.3-.88-2.99-3.06-5.59-5.74-6.89l-2.09-1.01h-76.62c-73.02,0-76.67.05-78.52.92Z"/>
      <text class="cls-3" transform="translate(427.68 360)"><tspan class="cls-1" x="0" y="0">N</tspan><tspan class="cls-5" x="232.37" y="0">E</tspan><tspan class="cls-6" x="468.03" y="0">X</tspan><tspan class="cls-4" x="688.67" y="0">T</tspan><tspan class="cls-7" x="904.37" y="0">W</tspan><tspan class="cls-9" x="1136.81" y="0">I</tspan><tspan class="cls-8" x="1193.52" y="0">N</tspan></text>
    </g>
  </g>
</svg>